<mxfile host="app.diagrams.net" agent="Mozilla/5.0 (Windows NT 10.0; Win64; x64) AppleWebKit/537.36 (KHTML, like Gecko) Chrome/129.0.0.0 Safari/537.36" version="24.7.16">
  <diagram name="Página-1" id="tYWlHlOw6fdSAHR7hfMb">
    <mxGraphModel dx="2950" dy="2283" grid="1" gridSize="10" guides="1" tooltips="1" connect="1" arrows="1" fold="1" page="1" pageScale="1" pageWidth="827" pageHeight="1169" math="0" shadow="0">
      <root>
        <mxCell id="0" />
        <mxCell id="1" parent="0" />
        <mxCell id="7s0XLIHdmpKxtkj9SIMC-8" style="edgeStyle=orthogonalEdgeStyle;rounded=0;orthogonalLoop=1;jettySize=auto;html=1;" edge="1" parent="1">
          <mxGeometry relative="1" as="geometry">
            <mxPoint x="180" y="120" as="targetPoint" />
            <mxPoint x="140" y="140" as="sourcePoint" />
            <Array as="points">
              <mxPoint x="150" y="140" />
              <mxPoint x="150" y="121" />
              <mxPoint x="170" y="121" />
            </Array>
          </mxGeometry>
        </mxCell>
        <mxCell id="7s0XLIHdmpKxtkj9SIMC-9" style="edgeStyle=orthogonalEdgeStyle;rounded=0;orthogonalLoop=1;jettySize=auto;html=1;" edge="1" parent="1" source="VUXCkIH87KOApmti3oat-1">
          <mxGeometry relative="1" as="geometry">
            <mxPoint x="270" y="150" as="targetPoint" />
          </mxGeometry>
        </mxCell>
        <mxCell id="7s0XLIHdmpKxtkj9SIMC-10" style="edgeStyle=orthogonalEdgeStyle;rounded=0;orthogonalLoop=1;jettySize=auto;html=1;" edge="1" parent="1">
          <mxGeometry relative="1" as="geometry">
            <mxPoint x="180" y="190" as="targetPoint" />
            <mxPoint x="140" y="159" as="sourcePoint" />
            <Array as="points">
              <mxPoint x="150" y="159" />
              <mxPoint x="150" y="180" />
              <mxPoint x="170" y="180" />
            </Array>
          </mxGeometry>
        </mxCell>
        <mxCell id="VUXCkIH87KOApmti3oat-1" value="Cliente" style="shape=umlActor;verticalLabelPosition=bottom;verticalAlign=top;html=1;outlineConnect=0;" parent="1" vertex="1">
          <mxGeometry x="100" y="120" width="30" height="60" as="geometry" />
        </mxCell>
        <mxCell id="7s0XLIHdmpKxtkj9SIMC-1" value="&lt;div&gt;O site de almofadas precisa de um sistema para fazer&lt;/div&gt;&lt;div&gt;pedidos.&lt;/div&gt;&lt;div&gt;- O cliente pode navegar pelo catálogo da loja&lt;/div&gt;&lt;div&gt;- O cliente pode colocar um item no carrinho&lt;/div&gt;&lt;div&gt;- O cliente pode finalizar a compra&lt;/div&gt;" style="text;html=1;align=center;verticalAlign=middle;whiteSpace=wrap;rounded=0;" vertex="1" parent="1">
          <mxGeometry x="60" y="30" width="360" height="30" as="geometry" />
        </mxCell>
        <mxCell id="7s0XLIHdmpKxtkj9SIMC-5" value="" style="ellipse;whiteSpace=wrap;html=1;" vertex="1" parent="1">
          <mxGeometry x="190" y="100" width="70" height="40" as="geometry" />
        </mxCell>
        <mxCell id="7s0XLIHdmpKxtkj9SIMC-11" value="Navegar pelo catalago" style="text;html=1;align=center;verticalAlign=middle;whiteSpace=wrap;rounded=0;fontSize=10;" vertex="1" parent="1">
          <mxGeometry x="200" y="115" width="50" height="10" as="geometry" />
        </mxCell>
        <mxCell id="7s0XLIHdmpKxtkj9SIMC-15" value="" style="ellipse;whiteSpace=wrap;html=1;" vertex="1" parent="1">
          <mxGeometry x="190" y="170" width="70" height="40" as="geometry" />
        </mxCell>
        <mxCell id="7s0XLIHdmpKxtkj9SIMC-16" value="Colocar item no carrinho" style="text;html=1;align=center;verticalAlign=middle;whiteSpace=wrap;rounded=0;fontSize=10;" vertex="1" parent="1">
          <mxGeometry x="200" y="185" width="50" height="10" as="geometry" />
        </mxCell>
        <mxCell id="7s0XLIHdmpKxtkj9SIMC-18" value="" style="ellipse;whiteSpace=wrap;html=1;" vertex="1" parent="1">
          <mxGeometry x="290" y="130" width="70" height="40" as="geometry" />
        </mxCell>
        <mxCell id="7s0XLIHdmpKxtkj9SIMC-19" value="Finalizar a compra" style="text;html=1;align=center;verticalAlign=middle;whiteSpace=wrap;rounded=0;fontSize=10;" vertex="1" parent="1">
          <mxGeometry x="300" y="145" width="50" height="10" as="geometry" />
        </mxCell>
        <mxCell id="7s0XLIHdmpKxtkj9SIMC-20" value="" style="endArrow=none;html=1;rounded=0;fontColor=#FF0000;strokeColor=#FF0000;startSize=16;strokeWidth=3;" edge="1" parent="1">
          <mxGeometry width="50" height="50" relative="1" as="geometry">
            <mxPoint x="400" y="2340" as="sourcePoint" />
            <mxPoint x="400" as="targetPoint" />
          </mxGeometry>
        </mxCell>
        <mxCell id="7s0XLIHdmpKxtkj9SIMC-34" value="&lt;div&gt;Uma biblioteca deseja automatizar suas operações. Um&lt;/div&gt;&lt;div&gt;usuário pode:&lt;/div&gt;&lt;div&gt;- O usuário pode solicitar livros para a bibliotecária&lt;/div&gt;&lt;div&gt;- A bibliotecária registra os empréstimos e devoluções&lt;/div&gt;&lt;div&gt;- A bibliotecária mantém o cadastro dos exemplares&lt;/div&gt;" style="text;html=1;align=center;verticalAlign=middle;whiteSpace=wrap;rounded=0;" vertex="1" parent="1">
          <mxGeometry x="400" y="30" width="440" height="30" as="geometry" />
        </mxCell>
        <mxCell id="7s0XLIHdmpKxtkj9SIMC-42" style="edgeStyle=orthogonalEdgeStyle;rounded=0;orthogonalLoop=1;jettySize=auto;html=1;" edge="1" parent="1" source="7s0XLIHdmpKxtkj9SIMC-35">
          <mxGeometry relative="1" as="geometry">
            <mxPoint x="530" y="140" as="targetPoint" />
          </mxGeometry>
        </mxCell>
        <mxCell id="7s0XLIHdmpKxtkj9SIMC-35" value="Usuário" style="shape=umlActor;verticalLabelPosition=bottom;verticalAlign=top;html=1;outlineConnect=0;" vertex="1" parent="1">
          <mxGeometry x="460" y="140" width="30" height="60" as="geometry" />
        </mxCell>
        <mxCell id="7s0XLIHdmpKxtkj9SIMC-43" style="edgeStyle=orthogonalEdgeStyle;rounded=0;orthogonalLoop=1;jettySize=auto;html=1;" edge="1" parent="1">
          <mxGeometry relative="1" as="geometry">
            <mxPoint x="680" y="180.02999999999977" as="targetPoint" />
            <mxPoint x="619.9999331152892" y="139.9955172413793" as="sourcePoint" />
          </mxGeometry>
        </mxCell>
        <mxCell id="7s0XLIHdmpKxtkj9SIMC-38" value="" style="ellipse;whiteSpace=wrap;html=1;" vertex="1" parent="1">
          <mxGeometry x="530" y="120" width="90" height="40" as="geometry" />
        </mxCell>
        <mxCell id="7s0XLIHdmpKxtkj9SIMC-39" value="Solicitar livros" style="text;html=1;align=center;verticalAlign=middle;whiteSpace=wrap;rounded=0;" vertex="1" parent="1">
          <mxGeometry x="545" y="125" width="60" height="30" as="geometry" />
        </mxCell>
        <mxCell id="7s0XLIHdmpKxtkj9SIMC-49" style="edgeStyle=orthogonalEdgeStyle;rounded=0;orthogonalLoop=1;jettySize=auto;html=1;entryX=0.5;entryY=0;entryDx=0;entryDy=0;" edge="1" parent="1" source="7s0XLIHdmpKxtkj9SIMC-44" target="7s0XLIHdmpKxtkj9SIMC-47">
          <mxGeometry relative="1" as="geometry">
            <Array as="points">
              <mxPoint x="558" y="225" />
              <mxPoint x="558" y="260" />
            </Array>
          </mxGeometry>
        </mxCell>
        <mxCell id="7s0XLIHdmpKxtkj9SIMC-50" style="edgeStyle=orthogonalEdgeStyle;rounded=0;orthogonalLoop=1;jettySize=auto;html=1;" edge="1" parent="1" source="7s0XLIHdmpKxtkj9SIMC-44">
          <mxGeometry relative="1" as="geometry">
            <mxPoint x="770" y="180" as="targetPoint" />
          </mxGeometry>
        </mxCell>
        <mxCell id="7s0XLIHdmpKxtkj9SIMC-44" value="Bibliotecaria" style="shape=umlActor;verticalLabelPosition=bottom;verticalAlign=top;html=1;outlineConnect=0;" vertex="1" parent="1">
          <mxGeometry x="660" y="195" width="30" height="60" as="geometry" />
        </mxCell>
        <mxCell id="7s0XLIHdmpKxtkj9SIMC-47" value="" style="ellipse;whiteSpace=wrap;html=1;" vertex="1" parent="1">
          <mxGeometry x="505" y="260" width="105" height="60" as="geometry" />
        </mxCell>
        <mxCell id="7s0XLIHdmpKxtkj9SIMC-48" value="Registra empréstimo e devolução" style="text;html=1;align=center;verticalAlign=middle;whiteSpace=wrap;rounded=0;" vertex="1" parent="1">
          <mxGeometry x="522.5" y="275" width="70" height="30" as="geometry" />
        </mxCell>
        <mxCell id="7s0XLIHdmpKxtkj9SIMC-51" value="" style="ellipse;whiteSpace=wrap;html=1;" vertex="1" parent="1">
          <mxGeometry x="725" y="130" width="90" height="40" as="geometry" />
        </mxCell>
        <mxCell id="7s0XLIHdmpKxtkj9SIMC-52" value="Manter o cadastro" style="text;html=1;align=center;verticalAlign=middle;whiteSpace=wrap;rounded=0;" vertex="1" parent="1">
          <mxGeometry x="740" y="135" width="60" height="30" as="geometry" />
        </mxCell>
        <mxCell id="7s0XLIHdmpKxtkj9SIMC-53" value="" style="endArrow=none;html=1;rounded=0;fontColor=#FF0000;strokeColor=#FF0000;startSize=16;strokeWidth=3;" edge="1" parent="1">
          <mxGeometry width="50" height="50" relative="1" as="geometry">
            <mxPoint x="830" y="360" as="sourcePoint" />
            <mxPoint y="360" as="targetPoint" />
          </mxGeometry>
        </mxCell>
        <mxCell id="7s0XLIHdmpKxtkj9SIMC-54" value="&lt;div&gt;Um sistema de atendimento em restaurante onde:&lt;/div&gt;&lt;div&gt;- O cliente pode fazer pedidos ao garçom&lt;/div&gt;&lt;div&gt;- O cliente pode solicitar a conta ao garçom,&lt;/div&gt;&lt;div&gt;- O garçom anotar o pedido do cliente&lt;/div&gt;&lt;div&gt;- O garçom entregar a conta do cliente&lt;/div&gt;" style="text;html=1;align=center;verticalAlign=middle;whiteSpace=wrap;rounded=0;" vertex="1" parent="1">
          <mxGeometry x="-10" y="420" width="440" height="30" as="geometry" />
        </mxCell>
        <mxCell id="7s0XLIHdmpKxtkj9SIMC-58" style="edgeStyle=orthogonalEdgeStyle;rounded=0;orthogonalLoop=1;jettySize=auto;html=1;" edge="1" parent="1" source="7s0XLIHdmpKxtkj9SIMC-55">
          <mxGeometry relative="1" as="geometry">
            <mxPoint x="90" y="520" as="targetPoint" />
            <Array as="points">
              <mxPoint x="60" y="535" />
              <mxPoint x="60" y="520" />
            </Array>
          </mxGeometry>
        </mxCell>
        <mxCell id="7s0XLIHdmpKxtkj9SIMC-59" style="edgeStyle=orthogonalEdgeStyle;rounded=0;orthogonalLoop=1;jettySize=auto;html=1;" edge="1" parent="1">
          <mxGeometry relative="1" as="geometry">
            <mxPoint x="90" y="590" as="targetPoint" />
            <mxPoint x="40" y="551" as="sourcePoint" />
            <Array as="points">
              <mxPoint x="60" y="551" />
              <mxPoint x="60" y="590" />
            </Array>
          </mxGeometry>
        </mxCell>
        <mxCell id="7s0XLIHdmpKxtkj9SIMC-55" value="Cliente&amp;nbsp;&lt;div&gt;&lt;br&gt;&lt;/div&gt;" style="shape=umlActor;verticalLabelPosition=bottom;verticalAlign=top;html=1;outlineConnect=0;" vertex="1" parent="1">
          <mxGeometry x="10" y="505" width="30" height="60" as="geometry" />
        </mxCell>
        <mxCell id="7s0XLIHdmpKxtkj9SIMC-64" style="edgeStyle=orthogonalEdgeStyle;rounded=0;orthogonalLoop=1;jettySize=auto;html=1;" edge="1" parent="1" source="7s0XLIHdmpKxtkj9SIMC-60">
          <mxGeometry relative="1" as="geometry">
            <mxPoint x="270" y="560" as="targetPoint" />
            <Array as="points">
              <mxPoint x="250" y="520" />
              <mxPoint x="250" y="531" />
            </Array>
          </mxGeometry>
        </mxCell>
        <mxCell id="7s0XLIHdmpKxtkj9SIMC-60" value="" style="ellipse;whiteSpace=wrap;html=1;" vertex="1" parent="1">
          <mxGeometry x="100" y="500" width="90" height="40" as="geometry" />
        </mxCell>
        <mxCell id="7s0XLIHdmpKxtkj9SIMC-61" value="Solicitar conta" style="text;html=1;align=center;verticalAlign=middle;whiteSpace=wrap;rounded=0;" vertex="1" parent="1">
          <mxGeometry x="115" y="505" width="60" height="30" as="geometry" />
        </mxCell>
        <mxCell id="7s0XLIHdmpKxtkj9SIMC-62" value="" style="ellipse;whiteSpace=wrap;html=1;" vertex="1" parent="1">
          <mxGeometry x="100" y="565" width="90" height="40" as="geometry" />
        </mxCell>
        <mxCell id="7s0XLIHdmpKxtkj9SIMC-73" style="edgeStyle=orthogonalEdgeStyle;rounded=0;orthogonalLoop=1;jettySize=auto;html=1;" edge="1" parent="1" source="7s0XLIHdmpKxtkj9SIMC-63">
          <mxGeometry relative="1" as="geometry">
            <mxPoint x="250" y="600" as="targetPoint" />
          </mxGeometry>
        </mxCell>
        <mxCell id="7s0XLIHdmpKxtkj9SIMC-63" value="fazer pedidos" style="text;html=1;align=center;verticalAlign=middle;whiteSpace=wrap;rounded=0;" vertex="1" parent="1">
          <mxGeometry x="110" y="570" width="75" height="30" as="geometry" />
        </mxCell>
        <mxCell id="7s0XLIHdmpKxtkj9SIMC-74" style="edgeStyle=orthogonalEdgeStyle;rounded=0;orthogonalLoop=1;jettySize=auto;html=1;" edge="1" parent="1" source="7s0XLIHdmpKxtkj9SIMC-65">
          <mxGeometry relative="1" as="geometry">
            <mxPoint x="210" y="680" as="targetPoint" />
            <Array as="points">
              <mxPoint x="275" y="680" />
            </Array>
          </mxGeometry>
        </mxCell>
        <mxCell id="7s0XLIHdmpKxtkj9SIMC-78" style="edgeStyle=orthogonalEdgeStyle;rounded=0;orthogonalLoop=1;jettySize=auto;html=1;" edge="1" parent="1" source="7s0XLIHdmpKxtkj9SIMC-65">
          <mxGeometry relative="1" as="geometry">
            <mxPoint x="230" y="770" as="targetPoint" />
            <Array as="points">
              <mxPoint x="361" y="600" />
              <mxPoint x="361" y="770" />
            </Array>
          </mxGeometry>
        </mxCell>
        <mxCell id="7s0XLIHdmpKxtkj9SIMC-65" value="Garçons" style="shape=umlActor;verticalLabelPosition=bottom;verticalAlign=top;html=1;outlineConnect=0;" vertex="1" parent="1">
          <mxGeometry x="260" y="570" width="30" height="60" as="geometry" />
        </mxCell>
        <mxCell id="7s0XLIHdmpKxtkj9SIMC-75" value="" style="ellipse;whiteSpace=wrap;html=1;" vertex="1" parent="1">
          <mxGeometry x="110" y="660" width="90" height="40" as="geometry" />
        </mxCell>
        <mxCell id="7s0XLIHdmpKxtkj9SIMC-77" style="edgeStyle=orthogonalEdgeStyle;rounded=0;orthogonalLoop=1;jettySize=auto;html=1;" edge="1" parent="1" source="7s0XLIHdmpKxtkj9SIMC-76">
          <mxGeometry relative="1" as="geometry">
            <mxPoint x="30" y="600" as="targetPoint" />
          </mxGeometry>
        </mxCell>
        <mxCell id="7s0XLIHdmpKxtkj9SIMC-76" value="Anotar pedido" style="text;html=1;align=center;verticalAlign=middle;whiteSpace=wrap;rounded=0;" vertex="1" parent="1">
          <mxGeometry x="125" y="665" width="60" height="30" as="geometry" />
        </mxCell>
        <mxCell id="7s0XLIHdmpKxtkj9SIMC-81" style="edgeStyle=orthogonalEdgeStyle;rounded=0;orthogonalLoop=1;jettySize=auto;html=1;" edge="1" parent="1" source="7s0XLIHdmpKxtkj9SIMC-79">
          <mxGeometry relative="1" as="geometry">
            <mxPoint x="10" y="600" as="targetPoint" />
          </mxGeometry>
        </mxCell>
        <mxCell id="7s0XLIHdmpKxtkj9SIMC-79" value="" style="ellipse;whiteSpace=wrap;html=1;" vertex="1" parent="1">
          <mxGeometry x="115" y="750" width="90" height="40" as="geometry" />
        </mxCell>
        <mxCell id="7s0XLIHdmpKxtkj9SIMC-80" value="Entregar a conta" style="text;html=1;align=center;verticalAlign=middle;whiteSpace=wrap;rounded=0;" vertex="1" parent="1">
          <mxGeometry x="130" y="755" width="60" height="30" as="geometry" />
        </mxCell>
      </root>
    </mxGraphModel>
  </diagram>
</mxfile>
